<?xml version="1.0" encoding="UTF-8"?>
<svg width="272px" height="272px" viewBox="0 0 272 272" version="1.1" xmlns="http://www.w3.org/2000/svg" xmlns:xlink="http://www.w3.org/1999/xlink">
    <!-- Generator: Sketch 46.2 (44496) - http://www.bohemiancoding.com/sketch -->
    <title>Haapa</title>
    <desc>Created with Sketch.</desc>
    <defs>
        <linearGradient x1="15.5474494%" y1="-9.05330882%" x2="68.2961857%" y2="123.503562%" id="linearGradient-1">
            <stop stop-color="#EB549B" offset="0%"></stop>
            <stop stop-color="#D32A2A" offset="100%"></stop>
        </linearGradient>
    </defs>
    <g id="Page-1" stroke="none" stroke-width="1" fill="none" fill-rule="evenodd">
        <g id="ICON" transform="translate(-120.000000, -120.000000)" fill="url(#linearGradient-1)">
            <path d="M173.429924,364.074521 C212.720948,355.616239 307,329.631786 307,305.6915 C307,299.930086 303.087233,297.047867 296.658005,295.503556 L269.837037,307.921529 L270.2529,302.035064 L287.62827,294.134867 C285.150285,293.956497 282.582523,293.888063 280.018581,293.888063 C270.418263,293.888063 254.198795,298.782915 236.259391,305.954519 L178.723517,290.669168 C173.346771,289.240839 167.622381,290.120868 162.913636,293.100379 L160.084459,294.890669 C157.322682,296.638085 157.293485,300.68204 160.029611,302.470132 L194.615261,325.069727 C186.353399,329.325033 178.514767,333.647124 171.604732,337.77518 L153.857159,328.311982 C150.958399,326.766572 147.531351,326.583531 144.486329,327.811504 L142.806233,328.488978 C142.29036,328.697036 141.836216,328.989507 141.451816,329.343484 C127.874006,308.181529 120,283.010301 120,256 C120,180.889274 180.889274,120 256,120 C331.110726,120 392,180.889274 392,256 C392,331.110726 331.110726,392 256,392 C224.946446,392 196.323767,381.592186 173.429924,364.074521 Z M237.00516,355.919113 L258.466301,380.474175 C259.774195,381.970664 261.904263,382.421123 263.698968,381.580945 L266.573169,380.235342 C271.814569,377.781594 274.901613,372.217788 274.230339,366.436036 L271.543603,343.298585 C271.377149,341.866957 269.934727,340.960819 268.58481,341.439585 L237.938669,352.312698 C236.447129,352.842309 235.959773,354.723296 237.00516,355.919113 Z M301.558622,184.265936 C296.597225,179.421295 289.742595,177 280.991654,177 C278.569958,177 276.098392,177.419899 273.579419,178.259287 C271.059419,179.09929 268.715094,180.232566 266.549113,181.658293 C264.380259,183.08361 262.516374,184.422116 260.952739,185.671756 C259.39095,186.921808 257.906123,188.250257 256.500103,189.656077 C255.093467,188.250257 253.60905,186.921808 252.047056,185.671756 C250.484036,184.422116 248.619331,183.084431 246.450887,181.658293 C244.282854,180.23195 241.93894,179.099495 239.419555,178.259287 C236.900376,177.420104 234.429221,177 232.007525,177 C223.2572,177 216.40216,179.42191 211.441378,184.265936 C206.480596,189.109551 204,195.827936 204,204.421705 C204,207.038994 204.459712,209.734885 205.377288,212.507327 C206.294864,215.280795 207.340503,217.64442 208.512152,219.597176 C209.683596,221.549727 211.01204,223.454665 212.496457,225.310142 C213.980875,227.165825 215.065712,228.443993 215.748507,229.147724 C216.431918,229.850018 216.969206,230.358371 217.359756,230.67032 L253.921818,265.944301 C254.625136,266.648032 255.484427,267 256.499897,267 C257.515368,267 258.375275,266.648032 259.078182,265.945737 L295.582165,230.788532 C304.527662,221.844026 309,213.054673 309,204.421705 C309.000205,195.827936 306.519199,189.109551 301.558622,184.265936 Z" id="Haapa"></path>
        </g>
    </g>
</svg>