<?xml version="1.0" encoding="UTF-8"?>
<svg width="22px" height="26px" viewBox="0 0 22 26" version="1.1" xmlns="http://www.w3.org/2000/svg" xmlns:xlink="http://www.w3.org/1999/xlink">
    <!-- Generator: Sketch 46.2 (44496) - http://www.bohemiancoding.com/sketch -->
    <title>icon/Medicine</title>
    <desc>Created with Sketch.</desc>
    <defs>
        <linearGradient x1="15.5474494%" y1="-9.05330882%" x2="100%" y2="208.42994%" id="linearGradient-1">
            <stop stop-color="#EB549B" offset="0%"></stop>
            <stop stop-color="#D32A2A" offset="100%"></stop>
        </linearGradient>
    </defs>
    <g id="Symbols" stroke="none" stroke-width="1" fill="none" fill-rule="evenodd">
        <g id="Tabbar" transform="translate(-70.000000, -24.000000)" fill-rule="nonzero" fill="url(#linearGradient-1)">
            <g id="Medicine">
                <g transform="translate(53.000000, 24.000000)">
                    <g id="icon/Medicine" transform="translate(17.000000, 0.000000)">
                        <path d="M20.6252546,0.0423625255 C21.2236253,0.0423625255 21.705499,0.529531568 21.705499,1.12260692 L21.705499,24.909165 C21.705499,25.5075356 21.2236253,25.9894094 20.6252546,25.9894094 L1.10142566,25.9894094 C0.50305499,25.9894094 0.0211812627,25.5075356 0.0211812627,24.909165 L0.0211812627,1.12260692 C0.0211812627,0.524236253 0.50305499,0.0423625255 1.10142566,0.0423625255 L20.6252546,0.0423625255 Z M19.5450102,23.8289206 L19.5450102,23.8289206 L19.5450102,2.20814664 L2.18167006,2.20814664 L2.18167006,23.8289206 L19.5450102,23.8289206 Z M8.31364562,8.85376782 L8.31364562,8.85376782 C7.72057026,8.85376782 7.23340122,8.37189409 7.23340122,7.77352342 C7.23340122,7.17515275 7.71527495,6.69327902 8.31364562,6.69327902 L9.78044807,6.69327902 L9.78044807,5.30590631 C9.78044807,4.70753564 10.2623218,4.22566191 10.8606925,4.22566191 C11.4590631,4.22566191 11.9409369,4.70753564 11.9409369,5.30590631 L11.9409369,6.69327902 L13.4077393,6.69327902 C14.00611,6.69327902 14.4879837,7.17515275 14.4879837,7.77352342 C14.4879837,8.37189409 14.00611,8.85376782 13.4077393,8.85376782 L11.9409369,8.85376782 L11.9409369,10.2411405 C11.9409369,10.8395112 11.4590631,11.3213849 10.8606925,11.3213849 C10.2623218,11.3213849 9.78044807,10.8395112 9.78044807,10.2411405 L9.78044807,8.85376782 L8.31364562,8.85376782 Z M5.62892057,16.3095723 C5.0305499,16.3095723 4.54867617,15.8224033 4.54867617,15.2293279 C4.54867617,14.6309572 5.0305499,14.1490835 5.62892057,14.1490835 L16.0924644,14.1490835 C16.690835,14.1490835 17.1727088,14.6309572 17.1727088,15.2293279 C17.1727088,15.8276986 16.690835,16.3095723 16.0924644,16.3095723 L5.62892057,16.3095723 Z M5.62892057,21.1600815 C5.0305499,21.1600815 4.54867617,20.6729124 4.54867617,20.0798371 C4.54867617,19.4814664 5.0305499,18.9995927 5.62892057,18.9995927 L16.0924644,18.9995927 C16.690835,18.9995927 17.1727088,19.4814664 17.1727088,20.0798371 C17.1727088,20.6782077 16.690835,21.1600815 16.0924644,21.1600815 L5.62892057,21.1600815 Z" id="Combined-Shape"></path>
                    </g>
                </g>
            </g>
        </g>
    </g>
</svg>