<?xml version="1.0" encoding="UTF-8"?>
<svg width="26px" height="26px" viewBox="0 0 26 26" version="1.1" xmlns="http://www.w3.org/2000/svg" xmlns:xlink="http://www.w3.org/1999/xlink">
    <!-- Generator: Sketch 46.2 (44496) - http://www.bohemiancoding.com/sketch -->
    <title>icon/Vaccines</title>
    <desc>Created with Sketch.</desc>
    <defs>
        <linearGradient x1="15.5474494%" y1="-9.05330882%" x2="100%" y2="208.42994%" id="linearGradient-1">
            <stop stop-color="#EB549B" offset="0%"></stop>
            <stop stop-color="#D32A2A" offset="100%"></stop>
        </linearGradient>
        <linearGradient x1="15.5474494%" y1="-9.05330882%" x2="68.2961857%" y2="123.503562%" id="linearGradient-2">
            <stop stop-color="#EB549B" offset="0%"></stop>
            <stop stop-color="#D32A2A" offset="100%"></stop>
        </linearGradient>
    </defs>
    <g id="Symbols" stroke="none" stroke-width="1" fill="none" fill-rule="evenodd">
        <g id="Tabbar" transform="translate(-170.000000, -23.000000)" fill-rule="nonzero">
            <g id="Vaccine">
                <g transform="translate(157.000000, 23.000000)">
                    <g id="icon/Vaccines" transform="translate(13.000000, 0.000000)">
                        <path d="M25.6816327,20.4277065 C25.2571429,20.0032347 24.5726531,20.0032347 24.1481633,20.4277065 L23.055102,21.5207214 L21.7020408,20.1677175 L25.3261224,16.5437893 C25.7506122,16.1193175 25.7506122,15.4348567 25.3261224,15.0103848 C24.9016327,14.585913 24.2171429,14.585913 23.7926531,15.0103848 L22.922449,15.8805521 L13.9604082,6.91358482 C13.0212245,5.97444091 10.617551,4.53123671 7.76816327,6.22912401 L1.85183673,0.318353867 C1.42734694,-0.106117956 0.742857143,-0.106117956 0.318367347,0.318353867 C-0.106122449,0.742825691 -0.106122449,1.42728651 0.318367347,1.85175833 L6.23469388,7.76783437 C5.00897959,9.69387526 5.23714286,12.2778475 6.91918367,13.9598171 L15.8918367,22.9214785 L15.0216327,23.7863398 C14.5971429,24.2108116 14.5971429,24.8952724 15.0216327,25.3197443 C15.2338776,25.5319802 15.9608163,25.9140048 16.555102,25.3197443 L18.1893878,23.6855277 L20.1791837,21.6958161 L21.5322449,23.04882 L20.4338776,24.1418349 C20.0093878,24.5663068 20.0093878,25.2507676 20.4338776,25.6752394 C20.6461224,25.8874753 21.3571429,26.2854177 21.9673469,25.6752394 L25.6816327,21.961111 C26.1061224,21.5366391 26.1061224,20.8521783 25.6816327,20.4277065 Z M17.42,21.3933799 L15.1383673,19.1171497 L16.4861224,17.7694517 C16.9106122,17.3449799 16.9106122,16.6605191 16.4861224,16.2360472 C16.0616327,15.8115754 15.3771429,15.8115754 14.9526531,16.2360472 L13.604898,17.5837453 L12.5595918,16.5384834 L13.9073469,15.1907854 C14.3318367,14.7663136 14.3318367,14.0818527 13.9073469,13.6573809 C13.4828571,13.2329091 12.7983673,13.2329091 12.3738776,13.6573809 L11.0261224,15.005079 L9.98612245,13.9545112 L11.3338776,12.6068132 C11.7583673,12.1823413 11.7583673,11.4978805 11.3338776,11.0734087 C10.9093878,10.6489369 10.224898,10.6489369 9.80040816,11.0734087 L8.45265306,12.4211067 L8.44734694,12.4158008 C7.34897959,11.31748 7.34897959,9.53469833 8.44734694,8.44168338 C9.22734694,7.66171641 11.0473469,7.06745586 12.4269388,8.44168338 L21.3995918,17.4086507 L17.42,21.3933799 L17.42,21.3933799 Z" id="Shape" fill="url(#linearGradient-1)"></path>
                        <path d="M5.23378531,15.2162327 C4.8379096,14.8612558 4.25180791,14.8612558 3.86107345,15.2162327 C3.21327684,15.8024824 0,18.8359211 0,21.2400827 C0,23.8647603 2.04107345,26 4.55,26 C7.05892655,26 9.1,23.8647603 9.1,21.2400827 C9.09485876,18.8359211 5.87644068,15.7971039 5.23378531,15.2162327 Z M4.54485876,23.800219 C3.19271186,23.800219 2.09248588,22.6492334 2.09248588,21.2400827 C2.09248588,20.3849112 3.38293785,18.7337308 4.54485876,17.5397177 C5.70677966,18.7337308 6.99723164,20.3795327 6.99723164,21.2400827 C6.99723164,22.6492334 5.89700565,23.800219 4.54485876,23.800219 Z" id="Shape" fill="url(#linearGradient-2)"></path>
                    </g>
                </g>
            </g>
        </g>
    </g>
</svg>